HIERARCHY
ROOT Hips
{
	OFFSET 0.000000 8.830580 0.000000
	CHANNELS 6 Xposition Yposition Zposition Zrotation Yrotation Xrotation 
	JOINT Spine
	{
		OFFSET 0.000000 0.010000 0.000000
		CHANNELS 3 Zrotation Yrotation Xrotation
		JOINT Spine1
		{
			OFFSET 0.000000 2.459130 0.000000
			CHANNELS 3 Zrotation Yrotation Xrotation
			JOINT Neck
			{
				OFFSET 0.000000 2.484630 0.000000
				CHANNELS 3 Zrotation Yrotation Xrotation
				JOINT Head_virtual
				{
					OFFSET 0.000000 0.000000 0.000000
					CHANNELS 3 Zrotation Yrotation Xrotation
					JOINT Head
					{
						OFFSET 0.000000 0.927525 0.000000
						CHANNELS 3 Zrotation Yrotation Xrotation
						End Site
						{
							OFFSET 0.000000 0.000000 0.000000
						}
					}
				}
				JOINT LeftUpArm_virtual
				{
					OFFSET 0.000000 0.000000 0.000000
					CHANNELS 3 Zrotation Yrotation Xrotation
					JOINT LeftUpArm
					{
						OFFSET 1.248820 0.000000 0.000000
						CHANNELS 3 Zrotation Yrotation Xrotation
						JOINT LeftForeArm
						{
							OFFSET 2.597580 0.000000 0.000000
							CHANNELS 3 Zrotation Yrotation Xrotation
							JOINT LeftHand
							{
								OFFSET 2.455420 0.000000 0.000000
								CHANNELS 3 Zrotation Yrotation Xrotation
								End Site
								{
									OFFSET 0.000000 0.000000 0.000000
								}
							}
						}
					}
				}
				JOINT RightUpArm_virtual
				{
					OFFSET -0.000000 -0.000000 -0.000000
					CHANNELS 3 Zrotation Yrotation Xrotation
					JOINT RightUpArm
					{
						OFFSET -1.248820 -0.000000 -0.000000
						CHANNELS 3 Zrotation Yrotation Xrotation
						JOINT RightForeArm
						{
							OFFSET -2.597580 -0.000000 -0.000000
							CHANNELS 3 Zrotation Yrotation Xrotation
							JOINT RightHand
							{
								OFFSET -2.455420 -0.000000 -0.000000
								CHANNELS 3 Zrotation Yrotation Xrotation
								End Site
								{
									OFFSET 0.000000 0.000000 0.000000
								}
							}
						}
					}
				}
			}
		}
	}
	JOINT LeftUpLeg
	{
		OFFSET 1.271939 0.000000 0.000000
		CHANNELS 3 Zrotation Yrotation Xrotation
		JOINT LeftLowLeg
		{
			OFFSET 0.000000 -4.342910 0.000000
			CHANNELS 3 Zrotation Yrotation Xrotation
			JOINT LeftFoot
			{
				OFFSET 0.000000 -4.487670 0.000000
				CHANNELS 3 Zrotation Yrotation Xrotation
				JOINT LeftToeBase
				{
					OFFSET 0.000000 0.000000 1.515070
					CHANNELS 3 Zrotation Yrotation Xrotation
					End Site
					{
						OFFSET 0.000000 0.000000 0.000000
					}
				}
			}
		}
	}
	JOINT RightUpLeg
	{
		OFFSET -1.271939 0.000000 0.000000
		CHANNELS 3 Zrotation Yrotation Xrotation
		JOINT RightLowLeg
		{
			OFFSET 0.000000 -4.342910 0.000000
			CHANNELS 3 Zrotation Yrotation Xrotation
			JOINT RightFoot
			{
				OFFSET 0.000000 -4.487670 0.000000
				CHANNELS 3 Zrotation Yrotation Xrotation
				JOINT RightToeBase
				{
					OFFSET 0.000000 0.000000 1.515070
					CHANNELS 3 Zrotation Yrotation Xrotation
					End Site
					{
						OFFSET 0.000000 0.000000 0.000000
					}
				}
			}
		}
	}
}
MOTION
Frames: 16
Frame Time: 0.041667
-20.145173 9.122709 41.851073 -174.738608 5.555828 -171.307499 0.637461 2.848960 -6.380950 -6.705185 3.346034 12.205026 0.000000 0.000000 0.000000 -7.218329 2.933293 -8.077096 -3.675311 8.027946 -54.186480 -5.815270 1.677800 2.573680 -16.706600 -32.939301 -12.648900 0.000000 -71.543098 0.000000 11.158300 11.769600 -24.466200 4.258620 -1.221350 -15.455400 9.664220 35.305302 -17.135900 0.000000 71.285301 0.000000 -3.702070 -8.611270 -44.948502 7.815082 -4.262989 -20.401144 0.000000 0.000000 15.067100 8.087423 -1.556634 9.314048 0.000000 0.000000 -33.414400 4.481794 1.103185 -3.338870 0.000000 0.000000 13.603700 6.331034 -4.851034 4.587468 0.000000 0.000000 -29.470600 
-20.196445 9.133811 41.791671 -174.674152 5.722186 -170.999190 0.485194 2.945817 -6.232488 -7.073097 3.454756 12.177368 0.000000 0.000000 0.000000 -7.646936 3.192485 -8.384353 -3.442083 7.890635 -54.370888 -5.544480 1.609120 2.686010 -16.411600 -34.368301 -12.404300 0.000000 -72.388100 0.000000 11.232500 11.784700 -24.344000 4.181380 -1.050290 -15.848800 9.246380 35.677101 -16.948400 0.000000 72.759399 0.000000 -3.764330 -8.564980 -45.226898 7.429001 -3.860398 -20.088337 0.000000 0.000000 14.621400 8.486468 -1.691631 9.180856 0.000000 0.000000 -33.425800 4.107457 0.574280 -3.803991 0.000000 0.000000 14.421100 6.594523 -4.115327 4.989999 0.000000 0.000000 -30.055900 
-20.246226 9.145795 41.734381 -174.549255 5.753272 -170.596793 0.165144 3.037259 -6.197450 -6.931819 3.614239 12.308663 0.000000 0.000000 0.000000 -8.112637 3.292796 -8.764680 -3.301076 7.558740 -54.614634 -5.607240 1.398420 2.823100 -15.920300 -35.904598 -12.336900 0.000000 -73.213501 0.000000 10.352400 11.577300 -25.240200 3.631450 -1.433350 -17.017500 9.992550 36.091900 -15.896700 0.000000 74.497398 0.000000 -3.158740 -8.430340 -46.590801 7.157614 -3.615290 -19.926129 0.000000 0.000000 14.197200 8.839966 -1.801583 9.103648 0.000000 0.000000 -33.449200 3.787384 0.024298 -4.345490 0.000000 0.000000 15.171500 6.910332 -3.300307 5.496964 0.000000 0.000000 -30.252200 
-20.294671 9.159064 41.678293 -174.354063 5.726140 -170.120765 -0.147680 3.123581 -6.677135 -6.563205 3.837288 13.255157 0.000000 0.000000 0.000000 -8.766283 3.402155 -9.480047 -3.037659 7.040424 -54.665793 -5.516450 0.879905 2.802370 -15.673900 -37.310902 -12.232400 0.000000 -74.187500 0.000000 10.105400 11.803500 -25.549500 3.500160 -1.580850 -16.864799 8.426640 36.826698 -17.011400 0.000000 75.873100 0.000000 -3.123010 -8.273080 -47.009201 6.972156 -3.416337 -19.846447 0.000000 0.000000 13.757900 9.192336 -1.886553 9.065795 0.000000 0.000000 -33.308001 3.524482 -0.247010 -4.947496 0.000000 0.000000 15.898300 7.331321 -2.570351 6.193276 0.000000 0.000000 -30.725300 
-20.343063 9.171105 41.622039 -174.147763 5.638342 -169.837845 -0.186063 3.150171 -6.445641 -6.781638 3.862353 13.236408 0.000000 0.000000 0.000000 -9.209251 3.585235 -9.775722 -3.018033 6.874835 -54.926319 -5.214520 0.806359 2.525330 -16.030600 -38.670101 -11.032500 0.000000 -75.307602 0.000000 10.867200 12.275500 -25.467501 3.392190 -1.689140 -17.477400 8.427240 37.289398 -16.574800 0.000000 77.456001 0.000000 -2.988140 -7.633460 -46.854301 6.841635 -3.519567 -19.581939 0.000000 0.000000 13.301400 9.527890 -1.741681 9.063853 0.000000 0.000000 -33.095900 3.267204 -0.225448 -5.272191 0.000000 0.000000 16.471001 7.938393 -1.991376 6.852188 0.000000 0.000000 -31.137699 
-20.390032 9.181871 41.568302 -173.893054 5.556449 -169.438872 -0.190746 3.273481 -6.265744 -6.922879 3.969763 13.083646 0.000000 0.000000 0.000000 -9.587268 3.660585 -9.913938 -2.955643 6.649513 -55.196484 -5.112610 0.404757 3.007280 -15.617900 -39.935299 -10.817100 0.000000 -76.593399 0.000000 11.103000 12.321200 -24.949699 3.245720 -2.001290 -17.873400 8.362590 37.844002 -16.197100 0.000000 79.132103 0.000000 -3.258760 -7.587450 -46.328602 6.803334 -3.654749 -19.470791 0.000000 0.000000 12.902100 9.766198 -1.583837 9.020475 0.000000 0.000000 -32.917200 3.062034 -0.485338 -5.829890 0.000000 0.000000 17.221201 8.379774 -1.182524 7.574573 0.000000 0.000000 -31.549000 
-20.434768 9.191606 41.516107 -173.642109 5.485481 -169.071418 -0.290292 3.280957 -6.173078 -6.906645 4.002691 13.185741 0.000000 0.000000 0.000000 -10.037697 3.793924 -10.288389 -3.066186 6.451192 -55.372945 -4.984830 0.237040 2.833170 -15.859200 -41.070999 -10.011200 0.000000 -78.014503 0.000000 10.792800 12.341700 -24.910101 3.112820 -2.066600 -18.194799 7.968780 38.393200 -16.122299 0.000000 80.828300 0.000000 -3.367760 -7.528680 -46.018101 6.759774 -3.700126 -19.385419 0.000000 0.000000 12.612000 10.033424 -1.502523 8.915481 0.000000 0.000000 -32.754200 2.867153 -0.655096 -6.359768 0.000000 0.000000 17.951000 8.888010 -0.394296 8.289898 0.000000 0.000000 -31.957701 
-20.476868 9.200708 41.464706 -173.448096 5.464529 -168.734446 -0.507071 3.200711 -6.026366 -6.810446 3.958883 13.148435 0.000000 0.000000 0.000000 -10.658489 4.037548 -10.577645 -3.094820 6.267834 -55.540665 -4.986650 0.228612 2.928050 -15.892600 -42.189999 -9.234330 0.000000 -79.409103 0.000000 10.770800 12.266400 -25.963100 2.861520 -2.025690 -18.644501 7.938360 38.948200 -15.564500 0.000000 82.533997 0.000000 -3.317860 -7.355180 -47.157501 6.606157 -3.489815 -19.289481 0.000000 0.000000 12.371000 10.360770 -1.586614 8.794438 0.000000 0.000000 -32.678400 2.627651 -0.699793 -6.878126 0.000000 0.000000 18.694700 9.334949 0.282382 8.951390 0.000000 0.000000 -32.256701 
-20.516333 9.208788 41.414061 -173.283720 5.524762 -168.430556 -0.680484 3.295093 -5.850846 -6.887102 4.075078 13.105922 0.000000 0.000000 0.000000 -11.056663 4.202689 -10.725131 -3.040518 6.138859 -55.846116 -4.815570 0.106729 2.918620 -16.193100 -43.390598 -8.047650 0.000000 -80.789703 0.000000 10.783000 12.614800 -27.241699 2.635390 -2.315960 -19.356600 8.463700 39.514999 -14.545800 0.000000 84.279900 0.000000 -3.194500 -7.305460 -47.240898 6.396323 -3.078731 -19.138296 0.000000 0.000000 12.115700 10.647601 -1.822461 8.653071 0.000000 0.000000 -32.613501 2.354016 -0.668625 -7.400727 0.000000 0.000000 19.477699 9.859101 0.990113 9.622770 0.000000 0.000000 -32.532499 
-20.554269 9.215656 41.363668 -173.108584 5.573521 -168.055585 -0.782160 3.363149 -5.709886 -7.053050 4.141850 12.956324 0.000000 0.000000 0.000000 -11.574373 4.450671 -10.907134 -2.828043 5.991957 -56.030464 -4.662620 0.034401 3.002560 -16.455999 -44.474899 -6.725250 0.000000 -82.234200 0.000000 10.904000 12.902000 -28.051300 2.415760 -2.466520 -19.878201 8.984590 40.005798 -13.625900 0.000000 86.099297 0.000000 -3.165210 -6.846640 -47.064301 6.233581 -2.764463 -19.074255 0.000000 0.000000 11.877300 10.961410 -1.961665 8.505051 0.000000 0.000000 -32.636801 2.103345 -0.566078 -7.953241 0.000000 0.000000 20.155100 10.354299 1.638664 10.328660 0.000000 0.000000 -32.780300 
-20.591523 9.223151 41.313370 -172.865216 5.615369 -167.720936 -0.761094 3.451343 -5.546712 -7.284962 4.208287 12.818747 0.000000 0.000000 0.000000 -11.960880 4.627551 -11.054854 -2.757355 5.893932 -56.194008 -4.551580 -0.138875 3.104660 -16.677099 -45.346600 -5.376200 0.000000 -83.783699 0.000000 10.955900 12.909900 -27.953800 2.410070 -2.578140 -19.857000 8.859630 40.616798 -13.343600 0.000000 88.044998 0.000000 -3.418750 -6.956210 -45.998402 6.183242 -2.639621 -19.005739 0.000000 0.000000 11.720500 11.255061 -1.904359 8.346443 0.000000 0.000000 -32.538500 1.924312 -0.469048 -8.397563 0.000000 0.000000 20.697300 10.940396 2.321517 11.158626 0.000000 0.000000 -33.038700 
-20.627806 9.231911 41.263408 -172.554145 5.670351 -167.451371 -0.722723 3.463485 -5.411003 -7.381200 4.215040 12.853559 0.000000 0.000000 0.000000 -12.521755 4.852375 -11.382648 -2.752924 5.726830 -56.282840 -4.602360 -0.207399 3.151770 -16.896400 -46.062500 -4.118800 0.000000 -85.389503 0.000000 10.942500 12.767200 -26.941700 2.432040 -2.533840 -19.774500 8.455180 41.329800 -13.155300 0.000000 89.911598 0.000000 -3.696360 -7.313080 -44.810902 6.238435 -2.660463 -18.895938 0.000000 0.000000 11.634900 11.543625 -1.678145 8.186175 0.000000 0.000000 -32.439699 1.816557 -0.483625 -8.757004 0.000000 0.000000 21.184601 11.287459 2.954418 12.053471 0.000000 0.000000 -33.109800 
-20.661478 9.241022 41.213293 -172.251158 5.620256 -167.156310 -0.704236 3.416395 -5.343264 -7.413445 4.171024 12.931943 0.000000 0.000000 0.000000 -13.078499 5.071556 -11.659899 -2.829122 5.589784 -56.437467 -4.576880 -0.266907 3.183150 -17.497400 -46.686298 -2.590970 0.000000 -86.959297 0.000000 11.409700 12.545900 -27.004200 2.576980 -2.308920 -19.312700 7.375610 41.980301 -13.505500 -180.000000 88.186203 -180.000000 -3.576680 -7.602610 -45.037498 6.293485 -2.621325 -18.855173 0.000000 0.000000 11.580800 11.784145 -1.619779 8.032651 0.000000 0.000000 -32.358101 1.752974 -0.339215 -9.054010 0.000000 0.000000 21.531900 11.435964 3.298361 12.972633 0.000000 0.000000 -33.568300 
-20.693804 9.250147 41.165092 -171.973053 5.575553 -166.816741 -0.708279 3.442347 -5.261951 -7.423702 4.195637 12.912300 0.000000 0.000000 0.000000 -13.486113 5.205293 -11.871651 -2.931232 5.468760 -56.596212 -4.601240 -0.343572 3.240900 -18.096901 -47.348301 -0.905414 0.000000 -88.496300 0.000000 11.614500 12.508800 -27.190901 2.528790 -2.376250 -19.365101 7.260740 42.550499 -12.835000 180.000000 86.240402 180.000000 -3.348570 -7.395040 -46.428600 6.294203 -2.401916 -18.922455 0.000000 0.000000 11.636200 12.029566 -1.704322 7.846403 0.000000 0.000000 -32.295700 1.665375 0.027080 -9.322221 0.000000 0.000000 21.716101 11.694487 3.540333 13.768192 0.000000 0.000000 -33.596201 
-20.723586 9.259565 41.118524 -171.680584 5.614239 -166.472161 -0.704496 3.542657 -5.168013 -7.499549 4.284980 12.817536 0.000000 0.000000 0.000000 -13.762557 5.342005 -12.005449 -2.962466 5.426533 -56.789117 -4.560020 -0.462438 3.358330 -18.850000 -48.019600 0.951033 0.000000 -89.982300 0.000000 12.037000 12.738300 -27.208799 2.537800 -2.390330 -19.098600 6.943790 42.971401 -12.493300 180.000000 84.253799 180.000000 -3.259050 -7.197480 -46.360001 6.309636 -2.112460 -18.984995 0.000000 0.000000 11.693900 12.260914 -1.773378 7.682732 0.000000 0.000000 -32.286400 1.597206 0.223442 -9.505713 0.000000 0.000000 21.691601 11.751748 3.910554 14.567353 0.000000 0.000000 -33.539700 
-20.750237 9.268532 41.071211 -171.427931 5.532339 -166.167919 -0.786408 3.521208 -5.096757 -7.454330 4.272951 12.775508 0.000000 0.000000 0.000000 -14.133604 5.523332 -12.127986 -2.862901 5.351338 -56.989017 -4.709190 -0.512604 3.477640 -19.347401 -48.559101 2.638890 180.000000 -88.551804 -180.000000 12.180700 12.724500 -26.762899 2.567170 -2.247330 -18.949100 6.608510 43.291100 -11.990100 -180.000000 82.303703 -180.000000 -3.670110 -7.300770 -43.772202 6.295216 -1.815591 -19.009509 0.000000 0.000000 11.693800 12.509103 -1.950273 7.548798 0.000000 0.000000 -32.393299 1.538333 0.670567 -9.582673 0.000000 0.000000 21.610600 11.825666 4.010529 15.152714 0.000000 0.000000 -33.181999 
